<?xml version="1.0" standalone="no"?>
<!DOCTYPE svg PUBLIC "-//W3C//DTD SVG 1.1//EN" "http://www.w3.org/Graphics/SVG/1.1/DTD/svg11.dtd" >
<svg xmlns="http://www.w3.org/2000/svg">
<metadata></metadata>
<defs>
<font id="FunctionProMediumItalic" horiz-adv-x="1161" >
<font-face units-per-em="2048" ascent="1542" descent="-506" />
<missing-glyph horiz-adv-x="512" />
<glyph unicode="&#xfb01;" horiz-adv-x="966" d="M45 651l23 183h127l45 372q20 158 86 224q68 65 174 65q71 0 166 -45l-21 -172q-32 25 -53.5 35t-48.5 10q-53 0 -78 -37t-37 -135l-39 -317h178l-22 -183h-178l-80 -651h-195l80 651h-127zM578 0l102 834h194l-102 -834h-194zM725 1235q0 43 30.5 73.5t73.5 30.5 t76 -32.5t33 -75.5t-32 -74t-75 -31t-74.5 32.5t-31.5 76.5z" />
<glyph unicode="&#xfb02;" horiz-adv-x="966" d="M45 651l23 183h127l45 372q20 158 86 224q68 65 174 65q71 0 166 -45l-21 -172q-32 25 -53.5 35t-48.5 10q-53 0 -78 -37t-37 -135l-39 -317h178l-22 -183h-178l-80 -651h-195l80 651h-127zM578 0l182 1493h196l-184 -1493h-194z" />
<glyph horiz-adv-x="0" />
<glyph horiz-adv-x="2048" />
<glyph unicode=" "  horiz-adv-x="512" />
<glyph unicode="&#x09;" horiz-adv-x="512" />
<glyph unicode="&#xa0;" horiz-adv-x="512" />
<glyph unicode="!" horiz-adv-x="565" d="M119 102q0 50 34 83.5t85 33.5q53 0 86.5 -34.5t33.5 -88.5q0 -50 -33 -83t-83 -33q-52 0 -87.5 35.5t-35.5 86.5zM168 358l125 1008h192l-123 -1008h-194z" />
<glyph unicode="&#x22;" horiz-adv-x="729" d="M176 817l31 549h219l-107 -549h-143zM494 817l28 549h219l-104 -549h-143z" />
<glyph unicode="#" horiz-adv-x="1105" d="M53 420l19 153h215l47 252h-205l18 156h215l74 397l154 -20l-70 -377h232l75 397l154 -20l-72 -377h199l-18 -156h-207l-45 -252h194l-18 -155h-207l-78 -424l-154 20l74 404h-233l-80 -424l-156 20l76 406h-203zM444 573h234l45 252h-231z" />
<glyph unicode="$" d="M102 252l154 104q54 -108 120 -154t167 -46q103 0 164 59.5t61 159.5q0 78 -43 127t-180 127q-156 89 -216.5 171.5t-60.5 205.5q0 158 99 263t264 124l22 178h150l-23 -189q157 -41 256 -192l-133 -127q-91 149 -231 149q-85 0 -146 -58t-61 -140q0 -69 44.5 -121 t158.5 -115q165 -94 221 -164q78 -96 78 -239q0 -164 -96.5 -271t-262.5 -127l-26 -208h-150l25 213q-120 19 -205 83.5t-150 186.5z" />
<glyph unicode="%" horiz-adv-x="1452" d="M143 977q0 173 80 291t197 118q100 0 160.5 -83t60.5 -220q0 -180 -76.5 -296.5t-193.5 -116.5q-104 0 -166 83t-62 224zM225 16l973 1391l82 -57l-973 -1391zM260 967q0 -88 28.5 -138.5t78.5 -50.5q67 0 113 89t46 220q0 88 -28.5 139.5t-75.5 51.5q-67 0 -114.5 -91 t-47.5 -220zM860 287q0 173 80 291t197 118q100 0 160.5 -83t60.5 -220q0 -180 -77 -296.5t-194 -116.5q-104 0 -165.5 83t-61.5 224zM977 276q0 -88 28.5 -138t77.5 -50q66 0 112 89t46 218q0 90 -27.5 141.5t-76.5 51.5q-66 0 -113 -91.5t-47 -220.5z" />
<glyph unicode="&#x26;" horiz-adv-x="1275" d="M98 379q0 172 160 317q33 29 160 113q-103 162 -103 289q0 129 86 208.5t224 79.5q142 0 232.5 -84.5t90.5 -218.5q0 -206 -270 -327l233 -336l158 145l127 -145l-176 -152l186 -268h-233l-103 147q-55 -41 -89 -64.5t-84.5 -50.5t-101 -39.5t-106.5 -12.5 q-103 0 -193.5 55t-144 147t-53.5 197zM291 379q0 -91 62 -155t151 -64q55 0 117 31t149 102l-258 373q-118 -73 -169.5 -140t-51.5 -147zM504 1087q0 -65 80 -190q102 51 144 96t42 105q0 57 -37.5 94t-95.5 37q-55 0 -94 -41.5t-39 -100.5z" />
<glyph unicode="'" horiz-adv-x="411" d="M176 817l31 549h219l-107 -549h-143z" />
<glyph unicode="(" horiz-adv-x="616" d="M156 383q0 298 85 572t263 554l139 -77q-171 -282 -247.5 -532t-76.5 -527q0 -335 119 -695l-147 -57q-135 349 -135 762z" />
<glyph unicode=")" horiz-adv-x="616" d="M-2 -301q171 284 247.5 533t76.5 526q0 331 -119 694l149 57q133 -352 133 -761q0 -299 -84.5 -573t-263.5 -554z" />
<glyph unicode="*" d="M322 1221l71 155l213 -114l17 241l170 -22l-43 -236l233 60l33 -168l-240 -33l129 -205l-149 -82l-105 217l-153 -186l-127 117l174 168z" />
<glyph unicode="+" d="M135 614v164h391v377h166v-377h391v-164h-391v-385h-166v385h-391z" />
<glyph unicode="," horiz-adv-x="497" d="M-96 -203l280 539l152 -84l-311 -520z" />
<glyph unicode="-" horiz-adv-x="382" d="M-14 352l18 156h383l-18 -156h-383z" />
<glyph unicode="." horiz-adv-x="497" d="M86 102q0 50 33 83.5t82 33.5q51 0 88 -36t37 -87q0 -46 -37 -81t-84 -35q-50 0 -84.5 35.5t-34.5 86.5z" />
<glyph unicode="/" horiz-adv-x="866" d="M-61 -334l843 1847l138 -59l-844 -1851z" />
<glyph unicode="0" d="M127 580q0 224 70.5 409t193.5 291t271 106q192 0 305.5 -160.5t113.5 -430.5q0 -157 -40 -314.5t-111 -277.5q-61 -106 -159 -164.5t-212 -58.5q-200 0 -316 161t-116 439zM324 555q0 -184 60.5 -288.5t166.5 -104.5q70 0 128 42.5t95 109.5t63 153t37 170.5t11 165.5 q0 187 -59.5 294t-163.5 107q-94 0 -171.5 -85.5t-122 -234.5t-44.5 -329z" />
<glyph unicode="1" d="M309 1178l92 188h402l-168 -1366h-203l146 1178h-269z" />
<glyph unicode="2" d="M53 0l545 600q126 138 155.5 174t53.5 80q33 64 33 131q0 101 -60 159t-164 58q-116 0 -173.5 -66.5t-69.5 -215.5h-193q7 109 26.5 177t57.5 124q55 79 148.5 122t210.5 43q188 0 300.5 -109t112.5 -290q0 -117 -47.5 -203.5t-202.5 -253.5l-315 -342h490l-25 -188h-883 z" />
<glyph unicode="3" d="M111 340h188q13 -86 71 -132t152 -46q112 0 182 68t70 176q0 62 -27.5 109.5t-76.5 70.5q-32 17 -67.5 22.5t-100.5 7.5l22 181q18 -2 49 -2q103 0 160.5 60t57.5 169q0 82 -49 130t-132 48q-95 0 -144 -53.5t-58 -167.5h-179q6 98 25 159t59 111q53 65 135.5 100 t182.5 35q164 0 260 -94.5t96 -255.5q0 -121 -52.5 -198.5t-168.5 -128.5q106 -41 155.5 -117.5t49.5 -196.5q0 -186 -124 -300.5t-325 -114.5q-178 0 -285 94t-126 266z" />
<glyph unicode="4" d="M29 252l993 1261l-133 -1087h127l-23 -174h-127l-32 -252h-201l33 252h-637zM377 426h309l59 481z" />
<glyph unicode="5" d="M57 238l142 114q78 -107 146 -148.5t165 -41.5q130 0 208.5 87t78.5 232q0 127 -74.5 202t-202.5 75q-71 0 -136.5 -21t-158.5 -75l228 704h565l-23 -188h-420l-90 -275q56 12 109 12q186 0 292.5 -117.5t106.5 -322.5q0 -221 -133 -358t-348 -137q-151 0 -260.5 62 t-194.5 196z" />
<glyph unicode="6" d="M106 424q0 98 42.5 201t134.5 227l426 571l151 -118l-309 -418q69 14 115 14q175 0 282 -112t107 -295q0 -215 -145.5 -364.5t-354.5 -149.5q-192 0 -320.5 127t-128.5 317zM303 416q0 -117 68.5 -185.5t185.5 -68.5q128 0 214.5 89.5t86.5 221.5q0 114 -71 187t-181 73 q-125 0 -214 -93.5t-89 -223.5z" />
<glyph unicode="7" d="M117 74l747 1104h-659l24 188h985l-935 -1391z" />
<glyph unicode="8" d="M143 381q0 132 64 221t199 143q-83 57 -120.5 123.5t-37.5 157.5q0 160 111.5 260t291.5 100q169 0 273 -98.5t104 -259.5q0 -106 -47 -175.5t-156 -125.5q73 -42 109 -86q38 -47 60 -113.5t22 -136.5q0 -179 -122.5 -295t-311.5 -116q-194 0 -316.5 111.5t-122.5 289.5z M340 387q0 -98 67 -161.5t171 -63.5q106 0 173.5 69.5t67.5 176.5q0 98 -65 159.5t-168 61.5q-109 0 -177.5 -67.5t-68.5 -174.5zM444 1012q0 -77 53 -127.5t134 -50.5q88 0 144 52.5t56 135.5q0 82 -51.5 132t-136.5 50q-86 0 -142.5 -54.5t-56.5 -137.5z" />
<glyph unicode="9" d="M141 877q0 214 146.5 361.5t359.5 147.5q188 0 314 -128t126 -318q0 -98 -42 -200t-134 -226l-426 -571l-151 118l309 418q-48 -14 -96 -14q-185 0 -295.5 112.5t-110.5 299.5zM338 881q0 -112 69 -180t183 -68q126 0 213.5 90t87.5 219q0 115 -71 188.5t-181 73.5 q-128 0 -214.5 -92.5t-86.5 -230.5z" />
<glyph unicode=":" horiz-adv-x="497" d="M86 102q0 50 33 83.5t82 33.5q51 0 88 -36t37 -87q0 -46 -37 -81t-84 -35q-50 0 -84.5 35.5t-34.5 86.5zM164 743q0 50 33 83.5t82 33.5q51 0 87.5 -36t36.5 -87q0 -46 -36.5 -81t-83.5 -35q-50 0 -84.5 35.5t-34.5 86.5z" />
<glyph unicode=";" horiz-adv-x="497" d="M-96 -203l280 539l152 -84l-311 -520zM156 743q0 50 32.5 83.5t81.5 33.5q51 0 88 -36t37 -87q0 -46 -37 -81t-84 -35q-49 0 -83.5 35.5t-34.5 86.5z" />
<glyph unicode="&#x3c;" horiz-adv-x="1024" d="M92 606v174l887 432v-202l-670 -318l670 -317v-203z" />
<glyph unicode="=" d="M135 483v152h948v-152h-948zM135 756v151h948v-151h-948z" />
<glyph unicode="&#x3e;" horiz-adv-x="1024" d="M94 172v203l670 317l-670 318v202l887 -434v-174z" />
<glyph unicode="?" horiz-adv-x="878" d="M172 604q0 52 21 106.5t55 94.5q66 78 219 137q114 44 150 74.5t36 83.5q0 55 -38.5 93t-94.5 38q-39 0 -73.5 -21.5t-53.5 -56.5q-22 -43 -22 -129h-176q2 90 15.5 144t47.5 98q43 57 113 88.5t153 31.5q143 0 230.5 -79t87.5 -209q0 -104 -64 -180q-31 -34 -70.5 -57.5 t-111.5 -51.5q-133 -51 -183.5 -96.5t-50.5 -114.5q0 -54 34 -87.5t89 -33.5q108 0 117 139h184q-8 -73 -21 -114.5t-42 -77.5q-86 -109 -242 -109q-132 0 -220.5 82.5t-88.5 206.5zM279 98q0 51 33.5 85t84.5 34q49 0 84 -35.5t35 -85.5q0 -49 -33.5 -82.5t-81.5 -33.5 q-53 0 -87.5 33.5t-34.5 84.5z" />
<glyph unicode="@" horiz-adv-x="1583" d="M123 684q0 147 56.5 278t154 225t233.5 149t289 55q188 0 341.5 -80t241 -220t87.5 -311q0 -131 -48 -245t-129 -181t-173 -67q-112 0 -156 108q-58 -60 -113 -85t-127 -25q-148 0 -244 104.5t-96 265.5q0 172 108 287t269 115q76 0 133 -27.5t107 -87.5l10 98h131 l-55 -465q-8 -70 -8 -94q0 -69 59 -69q52 0 100 50.5t77.5 134t29.5 173.5q0 218 -153.5 360t-389.5 142q-122 0 -230.5 -45.5t-186.5 -123.5t-123.5 -187.5t-45.5 -231.5q0 -158 75.5 -293.5t205.5 -210.5q131 -76 321 -76q112 0 206 21.5t200 71.5l16 8t25 12l47 -123 q-130 -64 -243.5 -91.5t-247.5 -27.5q-233 0 -404 97q-163 92 -256.5 256t-93.5 356zM618 647q0 -92 48 -152.5t120 -60.5q95 0 167.5 80t72.5 184q0 84 -56.5 139.5t-142.5 55.5q-91 0 -150 -69.5t-59 -176.5z" />
<glyph unicode="A" horiz-adv-x="1277" d="M-2 0l756 1462l471 -1462h-211l-99 322h-530l-166 -322h-221zM473 496h385l-147 485z" />
<glyph unicode="B" horiz-adv-x="1054" d="M106 0l168 1366h252q114 0 179.5 -20t115.5 -70q48 -46 75.5 -114.5t27.5 -141.5q0 -106 -48.5 -183t-150.5 -132q56 -13 88.5 -28t63.5 -42q90 -81 90 -232q0 -112 -51.5 -207t-139.5 -145q-54 -29 -119 -40t-190 -11h-361zM332 188h135q153 0 209 37q41 28 64.5 79 t23.5 114q0 101 -60 144.5t-198 43.5h-123zM403 768h58q141 0 198 66q62 68 62 176q0 87 -48 127.5t-151 40.5h-69z" />
<glyph unicode="C" horiz-adv-x="1249" d="M119 659q0 208 88 376t243 263t347 95q125 0 230.5 -34.5t229.5 -115.5l-26 -221q-177 180 -424 180q-216 0 -350.5 -153t-134.5 -398q0 -230 129.5 -358.5t361.5 -128.5q106 0 185 27.5t161 91.5l-31 -240q-106 -39 -184.5 -54.5t-165.5 -15.5q-296 0 -477.5 189 t-181.5 497z" />
<glyph unicode="D" horiz-adv-x="1296" d="M106 0l168 1366h277q157 0 241.5 -15.5t157.5 -58.5q133 -76 210 -230t77 -345q0 -223 -102.5 -403.5t-272.5 -256.5q-70 -32 -160 -44.5t-249 -12.5h-347zM332 188h153q158 0 245.5 26.5t152.5 94.5q71 74 111 184.5t40 231.5q0 154 -61 265t-170 155q-78 33 -236 33 h-114z" />
<glyph unicode="E" horiz-adv-x="962" d="M106 0l168 1366h703l-23 -188h-501l-43 -355h501l-22 -174h-500l-57 -461h502l-25 -188h-703z" />
<glyph unicode="F" horiz-adv-x="892" d="M106 0l168 1366h674l-22 -188h-473l-43 -353h473l-21 -174h-473l-80 -651h-203z" />
<glyph unicode="G" horiz-adv-x="1454" d="M117 655q0 210 90 379t249.5 264t358.5 95q171 0 309 -67.5t252 -207.5l-133 -135q-168 219 -432 219q-217 0 -354.5 -152t-137.5 -391q0 -218 129.5 -356.5t333.5 -138.5q146 0 247 79.5t130 217.5h-338l23 174h547q-12 -126 -37.5 -212.5t-75.5 -168.5 q-173 -281 -508 -281q-140 0 -261.5 51.5t-207.5 141t-135 216.5t-49 273z" />
<glyph unicode="H" horiz-adv-x="1296" d="M106 0l168 1366h203l-65 -537h563l65 537h203l-168 -1366h-203l82 666h-563l-82 -666h-203z" />
<glyph unicode="I" horiz-adv-x="530" d="M106 0l168 1366h203l-168 -1366h-203z" />
<glyph unicode="J" horiz-adv-x="772" d="M-31 104l105 150q52 -51 89.5 -70.5t80.5 -19.5q50 0 80.5 32.5t51 108.5t38.5 221l102 840h203l-121 -983q-15 -126 -40 -196.5t-71 -120.5q-84 -93 -235 -93q-83 0 -150 31t-133 100z" />
<glyph unicode="K" horiz-adv-x="1220" d="M106 0l168 1366h203l-71 -580l550 580h256l-637 -635l574 -731h-244l-514 666l-82 -666h-203z" />
<glyph unicode="L" horiz-adv-x="780" d="M106 0l168 1366h203l-145 -1178h387l-25 -188h-588z" />
<glyph unicode="M" horiz-adv-x="1759" d="M51 0l473 1462l344 -1116l625 1147l113 -1493h-193l-61 870l-529 -966l-293 966l-272 -870h-207z" />
<glyph unicode="N" horiz-adv-x="1488" d="M106 0l179 1440l827 -1057l121 983h203l-181 -1460l-827 1059l-119 -965h-203z" />
<glyph unicode="O" horiz-adv-x="1605" d="M119 678q0 152 55 285t150.5 227.5t230.5 148.5t289 54q315 0 507.5 -187.5t192.5 -494.5q0 -209 -94.5 -378t-262 -264.5t-374.5 -95.5q-307 0 -500.5 196.5t-193.5 508.5zM322 676q0 -222 140 -367t355 -145q224 0 373 156t149 391q0 224 -132.5 357.5t-356.5 133.5 q-148 0 -269 -68t-190 -189t-69 -269z" />
<glyph unicode="P" horiz-adv-x="1009" d="M106 0l168 1366h277q181 0 276 -59q77 -50 121.5 -138t44.5 -192q0 -174 -106 -289q-120 -135 -361 -135h-149l-68 -553h-203zM399 731h131q124 0 192.5 66t68.5 184q0 109 -86 166q-54 31 -164 31h-88z" />
<glyph unicode="Q" horiz-adv-x="1607" d="M119 672q0 206 94 371.5t261 258.5t374 93q201 0 358 -88t244.5 -247t87.5 -362q0 -172 -62 -308t-194 -251l182 -194h-229l-94 100q-147 -72 -328 -72q-203 0 -361 88t-245.5 247t-87.5 364zM322 672q0 -221 140 -365.5t355 -144.5q97 0 189 28l-256 279h223l184 -195 q178 156 178 433q0 223 -131.5 360t-345.5 137q-233 0 -384.5 -150t-151.5 -382z" />
<glyph unicode="R" horiz-adv-x="1079" d="M106 0l168 1366h269q118 0 190 -19t125 -63q62 -53 96.5 -134t34.5 -173q0 -183 -121 -295q-41 -40 -90 -63.5t-131 -43.5l342 -575h-215l-323 561h-74l-68 -561h-203zM399 739h95q91 0 142.5 16t86.5 54q63 69 63 170q0 62 -27.5 109t-76.5 69q-54 21 -143 21h-86z" />
<glyph unicode="S" horiz-adv-x="1011" d="M55 252l154 104q63 -109 123 -150.5t155 -41.5q107 0 168.5 58t61.5 161q0 71 -44 121t-177 129q-156 91 -215.5 173t-59.5 206q0 164 115.5 273.5t290.5 109.5q112 0 195 -46t169 -157l-135 -129q-54 77 -105 109t-118 32q-90 0 -149.5 -55.5t-59.5 -140.5 q0 -66 41.5 -114.5t159.5 -117.5q174 -103 234.5 -186t60.5 -219q0 -177 -116.5 -287.5t-303.5 -110.5q-88 0 -170 27.5t-142 77.5q-38 31 -66.5 68t-66.5 106z" />
<glyph unicode="T" horiz-adv-x="868" d="M100 1178l23 188h842l-23 -188h-313l-146 -1178h-200l143 1178h-326z" />
<glyph unicode="U" horiz-adv-x="1347" d="M168 422q0 81 12 180l94 764h201l-96 -791q-8 -57 -8 -118q0 -136 76 -214.5t208 -78.5q89 0 159.5 39.5t111.5 113.5q46 83 69 269l97 780h202l-100 -809q-19 -147 -47 -236t-78 -155q-71 -92 -177.5 -142.5t-232.5 -50.5q-211 0 -351 128.5t-140 320.5z" />
<glyph unicode="V" horiz-adv-x="1210" d="M100 1366h205l283 -952l502 952h217l-777 -1427z" />
<glyph unicode="W" horiz-adv-x="1884" d="M100 1366h207l256 -934l479 981l275 -956l446 909h217l-712 -1425l-273 956l-475 -971z" />
<glyph unicode="X" horiz-adv-x="1107" d="M-43 0l518 731l-299 635h215l211 -469l320 469h237l-461 -655l340 -711h-213l-254 543l-376 -543h-238z" />
<glyph unicode="Y" horiz-adv-x="1056" d="M92 1366h217l252 -543l359 543h233l-506 -754l-76 -612h-202l77 625z" />
<glyph unicode="Z" horiz-adv-x="1128" d="M10 0l807 1178h-573l22 188h903l-804 -1178h673l-22 -188h-1006z" />
<glyph unicode="[" horiz-adv-x="634" d="M61 -362l228 1855h409l-18 -150h-246l-190 -1556h245l-18 -149h-410z" />
<glyph unicode="\" horiz-adv-x="866" d="M193 1481l149 32l387 -1875l-149 -35z" />
<glyph unicode="]" horiz-adv-x="634" d="M-41 -362l18 149h246l191 1556h-246l18 150h410l-227 -1855h-410z" />
<glyph unicode="^" horiz-adv-x="1024" d="M55 719l346 653h269l346 -653h-217l-264 489l-263 -489h-217z" />
<glyph unicode="_" horiz-adv-x="1024" d="M25 -115h1024v-186h-1024v186z" />
<glyph unicode="`" horiz-adv-x="1024" d="M426 1219l143 96l168 -289l-94 -61z" />
<glyph unicode="a" horiz-adv-x="1089" d="M78 383q0 207 120.5 339t309.5 132q89 0 152 -29t128 -100l15 109h194l-102 -834h-195l11 90q-69 -61 -126.5 -85.5t-131.5 -24.5q-153 0 -260 104q-115 112 -115 299zM274 393q0 -110 62.5 -180t159.5 -70q107 0 185.5 88t78.5 209q0 110 -64 180t-164 70 q-109 0 -183.5 -85.5t-74.5 -211.5z" />
<glyph unicode="b" horiz-adv-x="1110" d="M80 0l184 1493h195l-90 -735q80 56 135 76t127 20q170 0 280.5 -116.5t110.5 -295.5q0 -195 -125.5 -328.5t-308.5 -133.5q-92 0 -161 30.5t-138 102.5l-15 -113h-194zM319 391q0 -109 65.5 -178.5t168.5 -69.5q114 0 193 85.5t79 207.5q0 114 -66.5 184t-172.5 70 q-115 0 -191 -85t-76 -214z" />
<glyph unicode="c" horiz-adv-x="829" d="M80 403q0 194 123.5 325.5t306.5 131.5q83 0 149 -24.5t138 -81.5l-23 -199q-60 76 -116 108.5t-128 32.5q-111 0 -182.5 -82t-71.5 -211q0 -120 67.5 -193t176.5 -73q57 0 104.5 19.5t108.5 68.5l-24 -205q-120 -47 -217 -47q-182 0 -297 120t-115 310z" />
<glyph unicode="d" horiz-adv-x="1126" d="M82 397q0 197 122 327t306 130q93 0 160.5 -33t140.5 -114l96 786h195l-182 -1493h-197l12 90q-73 -66 -125 -88t-131 -22q-173 0 -285 117t-112 300zM279 387q0 -111 64 -177.5t171 -66.5q124 0 197 101q69 95 69 209q0 106 -65.5 171.5t-171.5 65.5q-114 0 -189 -86 t-75 -217z" />
<glyph unicode="e" horiz-adv-x="1015" d="M80 393q0 200 127 333.5t317 133.5q186 0 297 -121t105 -323l-2 -70h-645q4 -97 66 -153t163 -56q138 0 209 103l145 -82q-74 -100 -155.5 -142.5t-202.5 -42.5q-192 0 -308 115t-116 305zM291 504h436q-30 192 -213 192q-89 0 -143.5 -47t-79.5 -145z" />
<glyph unicode="f" horiz-adv-x="555" d="M45 651l23 183h127l45 372q20 158 86 224q68 65 174 65q71 0 166 -45l-21 -172q-32 25 -53.5 35t-48.5 10q-53 0 -78 -37t-37 -135l-39 -317h178l-22 -183h-178l-80 -651h-195l80 651h-127z" />
<glyph unicode="g" horiz-adv-x="1110" d="M39 -84h188q5 -87 35 -137q26 -40 77 -63t114 -23q57 0 107 18t81 49q57 57 74 199l14 117q-68 -53 -126.5 -74.5t-133.5 -21.5q-169 0 -280 116.5t-111 296.5q0 197 129 329t323 132q89 0 150.5 -27t130.5 -96l12 103h195l-103 -842q-15 -130 -39.5 -201.5t-70.5 -124.5 q-119 -137 -338 -137q-104 0 -193.5 33.5t-148.5 93.5q-48 50 -67 107t-19 153zM274 393q0 -112 66.5 -181t173.5 -69q121 0 200 83.5t79 211.5q0 114 -68.5 183t-181.5 69q-115 0 -192 -84.5t-77 -212.5z" />
<glyph unicode="h" horiz-adv-x="999" d="M80 0l184 1493h195l-90 -731q64 51 117.5 71.5t119.5 20.5q121 0 196 -64t75 -167q0 -35 -11 -129l-59 -494h-197l64 506q4 27 4 74q0 53 -34 81.5t-97 28.5q-81 0 -141 -57q-34 -32 -50.5 -75.5t-25.5 -121.5l-56 -436h-194z" />
<glyph unicode="i" horiz-adv-x="468" d="M80 0l102 834h195l-103 -834h-194zM227 1235q0 43 31 73.5t74 30.5t75.5 -32.5t32.5 -75.5t-31.5 -74t-74.5 -31t-75 32.5t-32 76.5z" />
<glyph unicode="j" horiz-adv-x="477" d="M20 -477l162 1311h195l-162 -1311h-195zM223 1235q0 43 31 73.5t74 30.5q44 0 76 -32.5t32 -75.5t-31.5 -74t-74.5 -31t-75 32.5t-32 76.5z" />
<glyph unicode="k" horiz-adv-x="933" d="M80 0l184 1493h195l-121 -983l350 324h260l-436 -381l352 -453h-237l-303 397l-50 -397h-194z" />
<glyph unicode="l" horiz-adv-x="468" d="M80 0l184 1493h195l-185 -1493h-194z" />
<glyph unicode="m" horiz-adv-x="1437" d="M80 0l102 834h203l-10 -78q54 55 106 77.5t123 22.5q78 0 121.5 -29.5t75.5 -105.5q68 72 128.5 102.5t139.5 30.5q121 0 184.5 -58.5t63.5 -168.5q0 -19 -17 -168l-55 -459h-196l59 481q4 32 10 101q3 52 -25.5 80t-84.5 28q-82 0 -134 -55q-41 -47 -55 -170l-57 -465 h-197l62 494q8 74 8 92q0 51 -29.5 77.5t-83.5 26.5q-166 0 -190 -225l-58 -465h-194z" />
<glyph unicode="n" horiz-adv-x="997" d="M80 0l102 834h195l-8 -78q63 54 115.5 76t117.5 22q63 0 119.5 -22t93.5 -62q31 -34 43 -72t12 -98q0 -49 -12 -154l-55 -446h-195l60 489q8 70 8 89q0 112 -123 112q-84 0 -141 -57q-39 -39 -57.5 -87.5t-30.5 -144.5l-50 -401h-194z" />
<glyph unicode="o" horiz-adv-x="1089" d="M82 410q0 193 134 321.5t335 128.5q198 0 323 -121.5t125 -314.5q0 -191 -131.5 -321t-324.5 -130q-201 0 -331 123t-130 314zM279 414q0 -123 72.5 -200t187.5 -77t189.5 84t74.5 213q0 119 -69 190.5t-183 71.5q-119 0 -195.5 -79.5t-76.5 -202.5z" />
<glyph unicode="p" horiz-adv-x="1110" d="M20 -477l162 1311h195l-10 -89q69 60 128.5 84.5t137.5 24.5q167 0 277 -116.5t110 -293.5q0 -196 -126.5 -330t-311.5 -134q-92 0 -156.5 30.5t-136.5 108.5l-74 -596h-195zM322 389q0 -108 67 -177t172 -69q110 0 186 85.5t76 209.5q0 110 -63.5 181t-161.5 71 q-118 0 -197 -86t-79 -215z" />
<glyph unicode="q" horiz-adv-x="1114" d="M78 395q0 195 126.5 327t313.5 132q95 0 159.5 -30.5t133.5 -108.5l14 119h197l-162 -1311h-194l67 553q-67 -55 -124 -75.5t-138 -20.5q-172 0 -282.5 117t-110.5 298zM274 397q0 -110 68 -182t174 -72q122 0 193 90q35 42 55 97.5t20 107.5q0 108 -68 180t-169 72 q-115 0 -194 -85t-79 -208z" />
<glyph unicode="r" horiz-adv-x="692" d="M80 0l102 834h195l-8 -72q57 54 99.5 74t100.5 20q52 0 85.5 -13.5t74.5 -51.5l-125 -160q-53 47 -106 47q-65 0 -105 -49q-27 -33 -42 -80t-25 -133l-52 -416h-194z" />
<glyph unicode="s" horiz-adv-x="731" d="M35 139l127 90q44 -52 82 -73t88 -21q47 0 78.5 26.5t31.5 67.5q0 39 -25.5 63t-127.5 79q-92 51 -129 102.5t-37 126.5q0 114 83.5 188t211.5 74q75 0 135 -28t125 -93l-111 -110q-77 71 -143 71q-44 0 -74.5 -25.5t-30.5 -62.5q0 -35 25 -60t105 -69q110 -61 150 -114 t40 -135q0 -118 -83 -190.5t-218 -72.5q-100 0 -169.5 38t-133.5 128z" />
<glyph unicode="t" horiz-adv-x="530" d="M61 651l23 183h111l47 385h194l-47 -385h180l-22 -183h-180l-80 -651h-195l80 651h-111z" />
<glyph unicode="u" horiz-adv-x="991" d="M117 272q0 51 8 111l55 451h197l-58 -467q-8 -70 -8 -91q0 -64 40.5 -98.5t115.5 -34.5q83 0 122.5 44.5t53.5 152.5l62 494h194l-59 -486q-13 -112 -36 -169.5t-69 -100.5q-103 -98 -280 -98q-154 0 -246 79.5t-92 212.5z" />
<glyph unicode="v" horiz-adv-x="882" d="M45 834h203l143 -533l299 533h223l-571 -943z" />
<glyph unicode="w" horiz-adv-x="1316" d="M45 834h207l145 -508l297 530l160 -530l272 508h224l-537 -922l-168 539l-297 -539z" />
<glyph unicode="x" horiz-adv-x="980" d="M-41 0l424 463l-248 371h223l148 -240l199 240h249l-350 -385l301 -449h-227l-197 317l-270 -317h-252z" />
<glyph unicode="y" horiz-adv-x="954" d="M8 -477l336 581l-299 730h209l207 -533l301 533h223l-754 -1311h-223z" />
<glyph unicode="z" horiz-adv-x="937" d="M-16 0l559 651h-418l22 183h785l-561 -652h491l-22 -182h-856z" />
<glyph unicode="{" horiz-adv-x="647" d="M92 487l21 170q63 13 94.5 53t40.5 117l49 394q19 151 83 219.5t187 68.5q37 0 64 -2q28 0 51 -2l-20 -178q-10 2 -25 2q-98 0 -123 -55q-13 -20 -25 -107l-45 -354q-13 -108 -44.5 -158t-108.5 -90q53 -35 76.5 -75t23.5 -101v-20l-49 -402q-6 -41 -6 -78q0 -41 16 -57 q26 -29 121 -29l-20 -178l-111 -4q-123 -3 -176 68q-20 28 -27.5 59t-7.5 88q0 44 6 84l53 436q-3 110 -98 131z" />
<glyph unicode="|" horiz-adv-x="1024" d="M434 -342v1708h205v-1708h-205z" />
<glyph unicode="}" horiz-adv-x="647" d="M-10 -375l22 178l25 -2q91 -6 123 56q13 23 24 106l43 354q13 107 45 157t109 91q-100 66 -100 176v21l51 401q4 27 4 78t-27 67.5t-110 18.5l22 178q23 2 49 2q33 2 60 2q113 0 162 -49.5t49 -163.5q0 -46 -6 -86l-54 -436v-10q0 -45 26.5 -77t72.5 -44l-21 -170 q-62 -12 -94 -52t-41 -116l-49 -395q-19 -152 -84 -222.5t-187 -66.5z" />
<glyph unicode="~" horiz-adv-x="1366" d="M213 1247q69 146 132.5 202t160.5 56q87 0 223 -61q126 -55 189 -55q49 0 92 28t63 74q10 22 25 22q36 0 106 -73q-68 -134 -138.5 -192t-168.5 -58q-77 0 -229 70q-111 49 -181 49q-42 0 -87 -36t-60 -81q-4 -14 -9 -18.5t-14 -4.5q-35 0 -104 78z" />
<glyph unicode="&#xa1;" horiz-adv-x="565" d="M92 -313l123 1005h195l-125 -1005h-193zM221 954q0 50 33.5 83.5t83.5 33.5q52 0 87.5 -35.5t35.5 -87.5q0 -50 -34 -83.5t-85 -33.5q-53 0 -87 34.5t-34 88.5z" />
<glyph unicode="&#xa2;" d="M231 682q0 187 112.5 318.5t279.5 140.5l24 205h152l-29 -220q50 -13 83.5 -31.5t88.5 -62.5l-24 -196q-60 83 -115 117t-129 34q-113 0 -186.5 -85.5t-73.5 -217.5q0 -122 68 -199t177 -77q59 0 110.5 23t109.5 75l-27 -205q-62 -26 -100 -35.5t-88 -11.5l-29 -234h-150 l31 250q-138 43 -211.5 149.5t-73.5 262.5z" />
<glyph unicode="&#xa3;" d="M41 104q51 64 111 104.5t120 51.5q13 31 22 55t14.5 48t8 46t2.5 48q0 23 -6 69h-196l16 142h162q-9 71 -12.5 101t-6.5 61t-3.5 46t-0.5 37q0 135 57 243t160 169t232 61q116 0 202.5 -48t135.5 -140q26 -50 41 -106.5t24 -143.5l-180 -57q-21 317 -227 317 q-112 0 -180 -82t-68 -219q0 -101 27 -233h327l-16 -142h-301q2 -20 2 -49q0 -50 -9.5 -98t-35.5 -125q4 -1 14.5 -4t13.5 -3.5t11.5 -2.5t11 -3t9.5 -3.5t10.5 -3.5t10 -3.5t12 -5t12 -5.5t14.5 -7l39 -18q87 -41 165 -41q59 0 107 23t102 77l92 -156q-76 -67 -145 -95.5 t-154 -28.5q-76 0 -192 40q-121 42 -163 53t-79 11q-61 0 -106 -26t-101 -93z" />
<glyph unicode="&#xa4;" horiz-adv-x="1366" d="M111 1243l112 115l203 -205q76 52 144.5 75t148.5 23q149 0 287 -96l202 201l111 -113l-199 -201q53 -77 76 -144.5t23 -143.5q0 -142 -97 -285l203 -203l-113 -112l-202 202q-135 -98 -291 -98q-144 0 -291 96l-203 -200l-110 112l200 203q-98 134 -98 287q0 150 98 284 zM406 754q0 -129 92 -221.5t221 -92.5q127 0 219 92t92 218q0 134 -90.5 226.5t-222.5 92.5q-129 0 -220 -92t-91 -223z" />
<glyph unicode="&#xa5;" d="M121 483l16 138l377 2l-63 149h-295l18 137h213l-199 457h218l223 -543l332 543h233l-291 -457h193l-17 -137h-262l-96 -151h340l-17 -138h-346l-59 -483h-201l60 483h-377z" />
<glyph unicode="&#xa6;" horiz-adv-x="1024" d="M434 313h205v-655h-205v655zM434 670v696h205v-696h-205z" />
<glyph unicode="&#xa7;" d="M125 41h182v-41q0 -103 53 -160t150 -57q92 0 148.5 50.5t56.5 133.5q0 72 -51 123q-31 28 -57.5 42t-157.5 71q-248 108 -248 338q0 234 225 336q-76 60 -107.5 120t-31.5 146q0 161 110.5 264.5t282.5 103.5q110 0 199 -49t139 -137q29 -52 41 -108t14 -140h-182v45 q0 95 -59 153t-154 58q-85 0 -144 -56t-59 -138q0 -66 42.5 -111.5t141.5 -83.5q90 -36 136 -60.5t84 -56.5q118 -100 118 -268q0 -222 -235 -326q73 -65 94 -94q55 -71 55 -180q0 -151 -110 -245.5t-283 -94.5q-125 0 -217 48t-135 136q-26 55 -33.5 98t-7.5 140zM395 555 q0 -81 57 -134.5t144 -53.5t145 53.5t58 134.5q0 83 -58 136.5t-147 53.5q-85 0 -142 -54t-57 -136z" />
<glyph unicode="&#xa8;" horiz-adv-x="1024" d="M324 1124q0 43 30.5 74t73.5 31q44 0 76.5 -33t32.5 -76q0 -42 -32 -73t-75 -31t-74.5 32t-31.5 76zM641 1124q0 43 30.5 74t73.5 31q44 0 76.5 -33t32.5 -76t-31.5 -73.5t-74.5 -30.5t-75 32t-32 76z" />
<glyph unicode="&#xa9;" horiz-adv-x="1501" d="M70 686q0 142 56.5 273t150.5 226.5t224 152.5t271 57q195 0 359.5 -94.5t260 -258.5t95.5 -358q0 -145 -56 -277t-150.5 -227.5t-225.5 -152t-275 -56.5q-145 0 -276.5 56.5t-226.5 152.5t-151 228t-56 278zM184 684q0 -165 79.5 -305.5t216.5 -222.5t298 -82 q162 0 299 81.5t216 222t79 306.5q0 119 -45 229.5t-123 193.5t-190.5 133t-239.5 50q-158 0 -294 -81.5t-216 -221.5t-80 -303zM365 670q0 189 123 313.5t309 124.5q79 0 148 -21t151 -71l-21 -166q-47 43 -67 59q-94 62 -209 62q-125 0 -203 -84t-78 -219 q0 -130 77.5 -202.5t217.5 -72.5q63 0 110 15.5t93 52.5q2 1 5.5 3.5t9.5 7t11 7.5l-22 -176q-121 -47 -232 -47q-189 0 -306 114.5t-117 299.5z" />
<glyph unicode="&#xaa;" horiz-adv-x="696" d="M141 1094q0 124 78.5 204t200.5 80q100 0 164 -59l6 47h149l-63 -512h-148v33q-43 -25 -73 -34t-70 -9q-107 0 -175.5 70t-68.5 180zM291 1100q0 -60 35 -97.5t92 -37.5q62 0 104.5 45.5t42.5 111.5q0 58 -37 95.5t-94 37.5q-61 0 -102 -44.5t-41 -110.5z" />
<glyph unicode="&#xab;" horiz-adv-x="823" d="M63 430l322 395l94 -80l-266 -319l186 -307l-102 -64zM358 428l326 399l90 -82l-264 -319l188 -305l-106 -66z" />
<glyph unicode="&#xac;" horiz-adv-x="1024" d="M92 354v191h887v-545h-205v354h-682z" />
<glyph unicode="&#xad;" horiz-adv-x="382" d="M-14 352l18 156h383l-18 -156h-383z" />
<glyph unicode="&#xae;" horiz-adv-x="1501" d="M70 686q0 142 56.5 273t150.5 226.5t224 152.5t271 57q195 0 359.5 -94.5t260 -258.5t95.5 -358q0 -145 -56 -277t-150.5 -227.5t-225.5 -152t-275 -56.5q-145 0 -276.5 56.5t-226.5 152.5t-151 228t-56 278zM184 684q0 -165 79.5 -305.5t216.5 -222.5t298 -82 q162 0 299 81.5t216 222t79 306.5q0 119 -45 229.5t-123 193.5t-190.5 133t-239.5 50q-158 0 -294 -81.5t-216 -221.5t-80 -303zM475 272l100 820h179q141 0 207 -52q40 -33 63 -82t23 -104q0 -91 -55 -158.5t-148 -83.5l219 -340h-168l-203 326h-24l-41 -326h-152zM684 729 h43q85 0 123 27q43 37 43 94q0 54 -34 79t-109 25h-39z" />
<glyph unicode="&#xaf;" horiz-adv-x="1024" d="M293 1044l16 142h568l-17 -142h-567z" />
<glyph unicode="&#xb0;" d="M387 1114q0 114 80.5 193t196.5 79q110 0 190 -81t80 -191q0 -114 -79.5 -194t-192.5 -80q-114 0 -194.5 80t-80.5 194zM516 1112q0 -61 43 -105t103 -44q59 0 101 44t42 105q0 57 -41.5 97t-101.5 40q-61 0 -103.5 -40t-42.5 -97z" />
<glyph unicode="&#xb1;" d="M135 0v164h948v-164h-948zM135 614v164h391v377h166v-377h391v-164h-391v-385h-166v385h-391z" />
<glyph unicode="&#xb2;" horiz-adv-x="792" d="M100 547l346 364q104 110 126 143t22 79q0 57 -35.5 89.5t-97.5 32.5q-71 0 -105 -38t-41 -127h-131q5 71 16.5 112t37.5 76q75 100 227 100q119 0 191.5 -66t72.5 -175q0 -70 -29.5 -121.5t-126.5 -153.5l-184 -190h297l-16 -125h-570z" />
<glyph unicode="&#xb3;" horiz-adv-x="792" d="M141 760h129q18 -107 138 -107q66 0 106.5 37.5t40.5 97.5q0 63 -41.5 92t-130.5 29l14 121q14 -2 39 -2q60 0 93.5 34t33.5 95q0 46 -28.5 73t-79.5 27q-57 0 -85 -30.5t-32 -100.5h-125q12 252 256 252q104 0 166.5 -58t62.5 -155q0 -138 -125 -194q117 -48 117 -187 q0 -113 -78.5 -182.5t-205.5 -69.5q-117 0 -185 59t-80 169z" />
<glyph unicode="&#xb4;" horiz-adv-x="1024" d="M504 1024l237 291l146 -92l-283 -258z" />
<glyph unicode="&#xb5;" horiz-adv-x="991" d="M20 -477l162 1311h195l-58 -467q-8 -74 -8 -91q0 -64 40.5 -98.5t115.5 -34.5q83 0 122.5 44.5t53.5 152.5l62 494h194l-59 -486q-13 -113 -35 -170t-68 -100q-50 -46 -121.5 -72t-150.5 -26q-113 0 -209 55l-41 -512h-195z" />
<glyph unicode="&#xb6;" d="M135 995q0 92 33 169.5t92 121.5q103 80 305 80h633l-137 -190h-53l-170 -1371h-189l168 1371h-151l-168 -1371h-189l109 881q-135 -2 -209 79t-74 230z" />
<glyph unicode="&#xb7;" horiz-adv-x="495" d="M127 434q0 50 33 83.5t82 33.5q51 0 88 -36t37 -87q0 -46 -37 -81.5t-84 -35.5q-49 0 -84 36t-35 87z" />
<glyph unicode="&#xb8;" horiz-adv-x="1024" d="M268 -367l176 271l166 -86l-237 -244z" />
<glyph unicode="&#xb9;" horiz-adv-x="792" d="M260 1241l64 125h260l-101 -819h-139l86 694h-170z" />
<glyph unicode="&#xba;" horiz-adv-x="696" d="M129 1104q0 117 87.5 195.5t217.5 78.5q127 0 209 -74t82 -190q0 -119 -84.5 -198.5t-210.5 -79.5q-131 0 -216 75.5t-85 192.5zM279 1108q0 -66 41.5 -108t107.5 -42t106.5 43.5t40.5 114.5q0 62 -40.5 100.5t-104.5 38.5q-66 0 -108.5 -41.5t-42.5 -105.5z" />
<glyph unicode="&#xbb;" horiz-adv-x="823" d="M39 115l266 321l-188 303l104 68l234 -375l-324 -397zM336 115l264 321l-186 307l104 64l232 -377l-322 -395z" />
<glyph unicode="&#xbc;" horiz-adv-x="1820" d="M231 1241l64 125h260l-100 -819h-140l86 694h-170zM408 16l972 1391l84 -57l-972 -1391zM1073 150l635 774l-80 -658h78l-14 -116h-78l-21 -150h-139l21 150h-402zM1315 266h174l31 256z" />
<glyph unicode="&#xbd;" horiz-adv-x="1820" d="M231 1241l64 125h260l-100 -819h-140l86 694h-170zM408 16l972 1391l84 -57l-972 -1391zM1090 0l346 365q104 110 125.5 142.5t21.5 78.5q0 57 -35.5 90t-97.5 33q-71 0 -105 -38.5t-40 -127.5h-131q3 71 14 112t37 76q71 100 229 100q119 0 191.5 -66t72.5 -175 q0 -71 -29 -123t-126 -152l-185 -190h295l-14 -125h-569z" />
<glyph unicode="&#xbe;" horiz-adv-x="1820" d="M115 760h129q18 -107 137 -107q66 0 106.5 37.5t40.5 97.5q0 63 -41.5 92t-130.5 29l15 121q14 -2 39 -2q60 0 93.5 34t33.5 95q0 46 -29 73t-80 27q-57 0 -85 -30.5t-32 -100.5h-125q12 252 256 252q104 0 167 -58t63 -155q0 -138 -125 -194q117 -48 117 -187 q0 -113 -79 -182.5t-206 -69.5q-117 0 -184.5 58.5t-79.5 169.5zM410 16l972 1391l82 -57l-972 -1391zM1073 150l635 774l-80 -658h78l-14 -116h-78l-21 -150h-139l21 150h-402zM1317 266h172l31 256z" />
<glyph unicode="&#xbf;" horiz-adv-x="878" d="M51 -49q0 104 64 180q31 35 70.5 59t111.5 52q132 51 182.5 96.5t50.5 114.5q0 54 -33.5 87t-88.5 33q-108 0 -117 -139h-185q6 71 20 113.5t44 79.5q85 108 240 108q134 0 222.5 -82.5t88.5 -206.5q0 -52 -20.5 -106.5t-55.5 -95.5q-67 -76 -219 -135 q-112 -44 -149 -75.5t-37 -84.5q0 -54 38 -91.5t95 -37.5q39 0 73.5 21.5t53.5 56.5q22 45 22 129h174q0 -87 -14 -142t-47 -100q-43 -57 -113 -89t-153 -32q-143 0 -230.5 79t-87.5 208zM377 954q0 49 33.5 83t81.5 34q52 0 87 -34t35 -85t-33.5 -84.5t-84.5 -33.5 q-49 0 -84 35t-35 85z" />
<glyph unicode="&#xc0;" horiz-adv-x="1277" d="M-2 0l756 1462l471 -1462h-211l-99 322h-530l-166 -322h-221zM473 496h385l-147 485zM516 1749l154 96l174 -278l-107 -64z" />
<glyph unicode="&#xc1;" horiz-adv-x="1277" d="M-2 0l756 1462l471 -1462h-211l-99 322h-530l-166 -322h-221zM473 496h385l-147 485zM686 1567l242 278l153 -96l-288 -246z" />
<glyph unicode="&#xc2;" horiz-adv-x="1277" d="M-2 0l756 1462l471 -1462h-211l-99 322h-530l-166 -322h-221zM473 496h385l-147 485zM477 1583l322 248l227 -248l-108 -90l-140 152l-213 -156z" />
<glyph unicode="&#xc3;" horiz-adv-x="1277" d="M-2 0l756 1462l471 -1462h-211l-99 322h-530l-166 -322h-221zM473 496h385l-147 485zM477 1602q67 90 108.5 122.5t88.5 32.5q28 0 52.5 -9.5t76.5 -41.5q66 -39 102 -39q58 0 94 92l103 -76q-80 -161 -197 -161q-33 0 -66 12t-94 45q-52 29 -73 29q-20 0 -38.5 -17 t-53.5 -69z" />
<glyph unicode="&#xc4;" horiz-adv-x="1277" d="M-2 0l756 1462l471 -1462h-211l-99 322h-530l-166 -322h-221zM473 496h385l-147 485zM508 1642q0 49 32 80t83 31q47 0 77.5 -33t30.5 -84q0 -44 -32 -75t-76 -31q-47 0 -81 33t-34 79zM840 1645q0 46 33 78t79 32q47 0 80 -34t33 -81q0 -45 -33.5 -77.5t-79.5 -32.5 q-45 0 -78.5 34.5t-33.5 80.5z" />
<glyph unicode="&#xc5;" horiz-adv-x="1277" d="M-2 0l756 1462l471 -1462h-211l-99 322h-530l-166 -322h-221zM473 496h385l-147 485zM584 1686q0 80 57 137t137 57q83 0 140 -57t57 -140q0 -79 -57.5 -136.5t-137.5 -57.5q-82 0 -139 57.5t-57 139.5zM698 1686q0 -34 24 -58t58 -24q32 0 56 24t24 58q0 33 -24 56 t-58 23q-33 0 -56.5 -23t-23.5 -56z" />
<glyph unicode="&#xc6;" horiz-adv-x="1921" d="M-16 0l794 1366h629l55 -188h-567l119 -359h569l55 -174h-567l150 -457h573l55 -188h-776l-106 336h-566l-194 -336h-223zM504 510h407l-145 463z" />
<glyph unicode="&#xc7;" horiz-adv-x="1249" d="M119 659q0 208 88 376t243 263t347 95q125 0 230.5 -34.5t229.5 -115.5l-26 -221q-177 180 -424 180q-216 0 -350.5 -153t-134.5 -398q0 -230 129.5 -358.5t361.5 -128.5q106 0 185 27.5t161 91.5l-31 -240q-106 -39 -184.5 -54.5t-165.5 -15.5q-296 0 -477.5 189 t-181.5 497zM442 -373l183 277l172 -90l-244 -250z" />
<glyph unicode="&#xc8;" horiz-adv-x="962" d="M106 0l168 1366h703l-23 -188h-501l-43 -355h501l-22 -174h-500l-57 -461h502l-25 -188h-703zM420 1735l153 96l175 -279l-107 -63z" />
<glyph unicode="&#xc9;" horiz-adv-x="962" d="M106 0l168 1366h703l-23 -188h-501l-43 -355h501l-22 -174h-500l-57 -461h502l-25 -188h-703zM555 1552l242 279l153 -96l-288 -246z" />
<glyph unicode="&#xca;" horiz-adv-x="962" d="M106 0l168 1366h703l-23 -188h-501l-43 -355h501l-22 -174h-500l-57 -461h502l-25 -188h-703zM391 1583l322 248l227 -248l-109 -90l-139 152l-213 -156z" />
<glyph unicode="&#xcb;" horiz-adv-x="962" d="M106 0l168 1366h703l-23 -188h-501l-43 -355h501l-22 -174h-500l-57 -461h502l-25 -188h-703zM393 1642q0 49 32 80t83 31q47 0 77.5 -33t30.5 -84q0 -44 -32 -75t-76 -31q-47 0 -81 33t-34 79zM725 1645q0 45 33.5 77.5t79.5 32.5q47 0 79.5 -33.5t32.5 -81.5 q0 -46 -33 -78t-79 -32t-79.5 34.5t-33.5 80.5z" />
<glyph unicode="&#xcc;" horiz-adv-x="530" d="M106 0l168 1366h203l-168 -1366h-203zM168 1735l154 96l159 -279l-106 -63z" />
<glyph unicode="&#xcd;" horiz-adv-x="530" d="M106 0l168 1366h203l-168 -1366h-203zM317 1552l215 279l154 -96l-262 -246z" />
<glyph unicode="&#xce;" horiz-adv-x="530" d="M106 0l168 1366h203l-168 -1366h-203zM125 1583l307 248l215 -248l-108 -90l-125 152l-201 -156z" />
<glyph unicode="&#xcf;" horiz-adv-x="530" d="M106 0l168 1366h203l-168 -1366h-203zM139 1642q0 49 32 80t83 31q47 0 77.5 -33t30.5 -84q0 -44 -32 -75t-76 -31q-47 0 -81 33t-34 79zM444 1645q0 45 33.5 77.5t79.5 32.5q47 0 80 -34t33 -81q0 -45 -33.5 -77.5t-79.5 -32.5t-79.5 34.5t-33.5 80.5z" />
<glyph unicode="&#xd0;" horiz-adv-x="1296" d="M66 659l20 164h123l67 543h275q157 0 241.5 -15.5t157.5 -58.5q133 -76 210 -230t77 -345q0 -223 -103 -404t-272 -256q-70 -32 -160 -44.5t-249 -12.5h-347l82 659h-122zM334 188h153q157 0 244 26.5t152 94.5q71 74 111 184.5t40 231.5q0 154 -61 265t-170 155 q-75 33 -236 33h-112l-43 -355h313l-20 -164h-314z" />
<glyph unicode="&#xd1;" horiz-adv-x="1488" d="M106 0l179 1440l827 -1057l121 983h203l-181 -1460l-827 1059l-119 -965h-203zM582 1602q67 91 108 123t88 32q28 0 52.5 -9.5t76.5 -41.5q66 -39 103 -39q58 0 94 92l102 -76q-80 -161 -196 -161q-33 0 -66 12t-94 45q-52 29 -74 29q-20 0 -38.5 -17t-53.5 -69z" />
<glyph unicode="&#xd2;" horiz-adv-x="1605" d="M119 678q0 152 55 285t150.5 227.5t230.5 148.5t289 54q315 0 507.5 -187.5t192.5 -494.5q0 -209 -94.5 -378t-262 -264.5t-374.5 -95.5q-307 0 -500.5 196.5t-193.5 508.5zM322 676q0 -222 140 -367t355 -145q224 0 373 156t149 391q0 224 -132.5 357.5t-356.5 133.5 q-148 0 -269 -68t-190 -189t-69 -269zM698 1735l154 96l174 -279l-106 -63z" />
<glyph unicode="&#xd3;" horiz-adv-x="1605" d="M119 678q0 152 55 285t150.5 227.5t230.5 148.5t289 54q315 0 507.5 -187.5t192.5 -494.5q0 -209 -94.5 -378t-262 -264.5t-374.5 -95.5q-307 0 -500.5 196.5t-193.5 508.5zM322 676q0 -222 140 -367t355 -145q224 0 373 156t149 391q0 224 -132.5 357.5t-356.5 133.5 q-148 0 -269 -68t-190 -189t-69 -269zM842 1552l241 279l154 -96l-289 -246z" />
<glyph unicode="&#xd4;" horiz-adv-x="1605" d="M119 678q0 152 55 285t150.5 227.5t230.5 148.5t289 54q315 0 507.5 -187.5t192.5 -494.5q0 -209 -94.5 -378t-262 -264.5t-374.5 -95.5q-307 0 -500.5 196.5t-193.5 508.5zM322 676q0 -222 140 -367t355 -145q224 0 373 156t149 391q0 224 -132.5 357.5t-356.5 133.5 q-148 0 -269 -68t-190 -189t-69 -269zM676 1583l321 248l228 -248l-109 -90l-139 152l-213 -156z" />
<glyph unicode="&#xd5;" horiz-adv-x="1605" d="M119 678q0 152 55 285t150.5 227.5t230.5 148.5t289 54q315 0 507.5 -187.5t192.5 -494.5q0 -209 -94.5 -378t-262 -264.5t-374.5 -95.5q-307 0 -500.5 196.5t-193.5 508.5zM322 676q0 -222 140 -367t355 -145q224 0 373 156t149 391q0 224 -132.5 357.5t-356.5 133.5 q-148 0 -269 -68t-190 -189t-69 -269zM655 1602q67 90 108.5 122.5t88.5 32.5q28 0 52.5 -9.5t76.5 -41.5q66 -39 102 -39q59 0 95 92l102 -76q-80 -161 -197 -161q-32 0 -65 11.5t-94 45.5q-52 29 -74 29q-20 0 -38.5 -17t-53.5 -69z" />
<glyph unicode="&#xd6;" horiz-adv-x="1605" d="M119 678q0 152 55 285t150.5 227.5t230.5 148.5t289 54q315 0 507.5 -187.5t192.5 -494.5q0 -209 -94.5 -378t-262 -264.5t-374.5 -95.5q-307 0 -500.5 196.5t-193.5 508.5zM322 676q0 -222 140 -367t355 -145q224 0 373 156t149 391q0 224 -132.5 357.5t-356.5 133.5 q-148 0 -269 -68t-190 -189t-69 -269zM682 1642q0 49 32 80t83 31q47 0 77.5 -33t30.5 -84q0 -44 -32 -75t-76 -31q-47 0 -81 33t-34 79zM1014 1645q0 46 33 78t79 32q47 0 80 -34t33 -81q0 -45 -33.5 -77.5t-79.5 -32.5q-45 0 -78.5 34.5t-33.5 80.5z" />
<glyph unicode="&#xd7;" d="M197 1001l110 107l295 -297l295 299l123 -121l-297 -299l297 -297l-111 -104l-293 293l-294 -299l-123 120l297 299z" />
<glyph unicode="&#xd8;" horiz-adv-x="1605" d="M70 109l166 149q-68 130 -92.5 217t-24.5 201q0 154 54.5 287t150.5 227.5t231.5 148.5t292.5 54q140 0 248 -36t229 -124l170 147l98 -108l-172 -154q123 -155 123 -403q0 -158 -55.5 -296t-151.5 -236t-232 -154t-292 -56q-142 0 -251.5 40.5t-235.5 138.5l-166 -150z M322 674q0 -69 15.5 -128.5t55.5 -146.5l778 697q-115 106 -323 106q-224 0 -375 -151t-151 -377zM483 289q73 -66 153.5 -95.5t184.5 -29.5q146 0 265.5 71.5t187 197.5t67.5 280q0 163 -71 270z" />
<glyph unicode="&#xd9;" horiz-adv-x="1347" d="M168 422q0 81 12 180l94 764h201l-96 -791q-8 -57 -8 -118q0 -136 76 -214.5t208 -78.5q89 0 159.5 39.5t111.5 113.5q46 83 69 269l97 780h202l-100 -809q-19 -147 -47 -236t-78 -155q-71 -92 -177.5 -142.5t-232.5 -50.5q-211 0 -351 128.5t-140 320.5zM573 1735 l154 96l174 -279l-106 -63z" />
<glyph unicode="&#xda;" horiz-adv-x="1347" d="M168 422q0 81 12 180l94 764h201l-96 -791q-8 -57 -8 -118q0 -136 76 -214.5t208 -78.5q89 0 159.5 39.5t111.5 113.5q46 83 69 269l97 780h202l-100 -809q-19 -147 -47 -236t-78 -155q-71 -92 -177.5 -142.5t-232.5 -50.5q-211 0 -351 128.5t-140 320.5zM705 1552 l241 279l154 -96l-289 -246z" />
<glyph unicode="&#xdb;" horiz-adv-x="1347" d="M168 422q0 81 12 180l94 764h201l-96 -791q-8 -57 -8 -118q0 -136 76 -214.5t208 -78.5q89 0 159.5 39.5t111.5 113.5q46 83 69 269l97 780h202l-100 -809q-19 -147 -47 -236t-78 -155q-71 -92 -177.5 -142.5t-232.5 -50.5q-211 0 -351 128.5t-140 320.5zM545 1583 l321 248l228 -248l-109 -90l-139 152l-213 -156z" />
<glyph unicode="&#xdc;" horiz-adv-x="1347" d="M168 422q0 81 12 180l94 764h201l-96 -791q-8 -57 -8 -118q0 -136 76 -214.5t208 -78.5q89 0 159.5 39.5t111.5 113.5q46 83 69 269l97 780h202l-100 -809q-19 -147 -47 -236t-78 -155q-71 -92 -177.5 -142.5t-232.5 -50.5q-211 0 -351 128.5t-140 320.5zM543 1642 q0 50 31.5 80.5t82.5 30.5q47 0 78 -33t31 -84q0 -44 -32 -75t-77 -31q-47 0 -80.5 33t-33.5 79zM874 1645q0 45 33.5 77.5t79.5 32.5q47 0 80 -34t33 -81q0 -45 -33.5 -77.5t-79.5 -32.5t-79.5 34.5t-33.5 80.5z" />
<glyph unicode="&#xdd;" horiz-adv-x="1056" d="M92 1366h217l252 -543l359 543h233l-506 -754l-76 -612h-202l77 625zM541 1552l241 279l154 -96l-289 -246z" />
<glyph unicode="&#xde;" horiz-adv-x="1009" d="M106 0l168 1366h203l-24 -192h75q180 0 277 -60q77 -50 121.5 -138t44.5 -192q0 -170 -107 -286q-121 -136 -360 -136h-150l-45 -362h-203zM375 541h133q130 0 190 63q32 32 51 82.5t19 104.5q0 52 -23 95t-63 68q-50 31 -166 31h-86z" />
<glyph unicode="&#xdf;" horiz-adv-x="1062" d="M80 651l22 183h93l36 290q25 192 93 275q103 119 284 119q169 0 270 -95.5t101 -253.5q0 -116 -51 -198t-160 -140q103 -54 151 -136.5t48 -207.5q0 -110 -41 -212t-113 -173q-113 -110 -307 -110q-48 0 -121 8l23 170q46 -14 90 -14q124 0 198 93t74 249q0 177 -145 233 q-20 6 -75.5 14t-68.5 5h-4l21 168q72 0 107.5 5.5t64.5 22.5q54 31 88.5 97.5t34.5 138.5q0 79 -47.5 125.5t-129.5 46.5q-115 0 -159 -103q-22 -49 -35 -159l-133 -1092h-197l82 651h-94z" />
<glyph unicode="&#xe0;" horiz-adv-x="1089" d="M78 383q0 207 120.5 339t309.5 132q89 0 152 -29t128 -100l15 109h194l-102 -834h-195l11 90q-69 -61 -126.5 -85.5t-131.5 -24.5q-153 0 -260 104q-115 112 -115 299zM274 393q0 -110 62.5 -180t159.5 -70q107 0 185.5 88t78.5 209q0 110 -64 180t-164 70 q-109 0 -183.5 -85.5t-74.5 -211.5zM395 1219l144 96l168 -289l-95 -61z" />
<glyph unicode="&#xe1;" horiz-adv-x="1089" d="M78 383q0 207 120.5 339t309.5 132q89 0 152 -29t128 -100l15 109h194l-102 -834h-195l11 90q-69 -61 -126.5 -85.5t-131.5 -24.5q-153 0 -260 104q-115 112 -115 299zM274 393q0 -110 62.5 -180t159.5 -70q107 0 185.5 88t78.5 209q0 110 -64 180t-164 70 q-109 0 -183.5 -85.5t-74.5 -211.5zM530 1024l238 291l145 -92l-282 -258z" />
<glyph unicode="&#xe2;" horiz-adv-x="1089" d="M78 383q0 207 120.5 339t309.5 132q89 0 152 -29t128 -100l15 109h194l-102 -834h-195l11 90q-69 -61 -126.5 -85.5t-131.5 -24.5q-153 0 -260 104q-115 112 -115 299zM274 393q0 -110 62.5 -180t159.5 -70q107 0 185.5 88t78.5 209q0 110 -64 180t-164 70 q-109 0 -183.5 -85.5t-74.5 -211.5zM369 1055l295 260l206 -262l-88 -84l-139 166l-192 -170z" />
<glyph unicode="&#xe3;" horiz-adv-x="1089" d="M78 383q0 207 120.5 339t309.5 132q89 0 152 -29t128 -100l15 109h194l-102 -834h-195l11 90q-69 -61 -126.5 -85.5t-131.5 -24.5q-153 0 -260 104q-115 112 -115 299zM274 393q0 -110 62.5 -180t159.5 -70q107 0 185.5 88t78.5 209q0 110 -64 180t-164 70 q-109 0 -183.5 -85.5t-74.5 -211.5zM358 1094q52 85 94.5 120t92.5 35q25 0 46.5 -8.5t78.5 -40.5q67 -37 88 -37q24 0 44 20.5t44 67.5l102 -69q-85 -160 -190 -160q-50 0 -185 80q-11 8 -28 8q-21 0 -34 -12t-38 -54q-3 -7 -14 -20z" />
<glyph unicode="&#xe4;" horiz-adv-x="1089" d="M78 383q0 207 120.5 339t309.5 132q89 0 152 -29t128 -100l15 109h194l-102 -834h-195l11 90q-69 -61 -126.5 -85.5t-131.5 -24.5q-153 0 -260 104q-115 112 -115 299zM274 393q0 -110 62.5 -180t159.5 -70q107 0 185.5 88t78.5 209q0 110 -64 180t-164 70 q-109 0 -183.5 -85.5t-74.5 -211.5zM383 1124q0 43 30.5 74t73.5 31q44 0 76.5 -33t32.5 -76q0 -42 -32 -73t-75 -31t-74.5 32t-31.5 76zM700 1124q0 43 31 74t74 31q44 0 76 -33t32 -76t-31.5 -73.5t-74.5 -30.5t-75 32t-32 76z" />
<glyph unicode="&#xe5;" horiz-adv-x="1089" d="M78 383q0 207 120.5 339t309.5 132q89 0 152 -29t128 -100l15 109h194l-102 -834h-195l11 90q-69 -61 -126.5 -85.5t-131.5 -24.5q-153 0 -260 104q-115 112 -115 299zM274 393q0 -110 62.5 -180t159.5 -70q107 0 185.5 88t78.5 209q0 110 -64 180t-164 70 q-109 0 -183.5 -85.5t-74.5 -211.5zM406 1139q0 79 57 136.5t137 57.5q83 0 140 -56.5t57 -139.5q0 -79 -57.5 -137t-137.5 -58q-82 0 -139 57.5t-57 139.5zM516 1139q0 -34 25 -59t59 -25t59 25t25 59t-24.5 58t-59.5 24t-59.5 -24t-24.5 -58z" />
<glyph unicode="&#xe6;" horiz-adv-x="1589" d="M53 266q0 120 93 197.5t239 77.5q138 0 264 -92q10 98 10 122q0 60 -46.5 92.5t-131.5 32.5q-89 0 -223 -45l23 172q142 37 229 37q203 0 295 -131q119 131 291 131q179 0 292 -121t113 -311q0 -41 -2 -70h-665q2 -100 69.5 -160.5t177.5 -60.5q69 0 120 26t99 83 l132 -94q-130 -179 -367 -179q-113 0 -192 38t-134 120q-72 -86 -145 -122t-176 -36q-154 0 -259.5 84.5t-105.5 208.5zM250 262q0 -54 52 -89.5t130 -35.5q85 0 139 33.5t54 85.5q0 54 -56 87.5t-145 33.5q-78 0 -126 -31.5t-48 -83.5zM848 502h459q-7 94 -63.5 144 t-153.5 50q-98 0 -155.5 -46t-86.5 -148z" />
<glyph unicode="&#xe7;" horiz-adv-x="829" d="M80 403q0 194 123.5 325.5t306.5 131.5q83 0 149 -24.5t138 -81.5l-23 -199q-60 76 -116 108.5t-128 32.5q-111 0 -182.5 -82t-71.5 -211q0 -120 67.5 -193t176.5 -73q57 0 104.5 19.5t108.5 68.5l-24 -205q-120 -47 -217 -47q-182 0 -297 120t-115 310zM195 -367 l178 271l164 -86l-238 -244z" />
<glyph unicode="&#xe8;" horiz-adv-x="1015" d="M80 393q0 200 127 333.5t317 133.5q186 0 297 -121t105 -323l-2 -70h-645q4 -97 66 -153t163 -56q138 0 209 103l145 -82q-74 -100 -155.5 -142.5t-202.5 -42.5q-192 0 -308 115t-116 305zM291 504h436q-30 192 -213 192q-89 0 -143.5 -47t-79.5 -145zM354 1219l144 96 l168 -289l-95 -61z" />
<glyph unicode="&#xe9;" horiz-adv-x="1015" d="M80 393q0 200 127 333.5t317 133.5q186 0 297 -121t105 -323l-2 -70h-645q4 -97 66 -153t163 -56q138 0 209 103l145 -82q-74 -100 -155.5 -142.5t-202.5 -42.5q-192 0 -308 115t-116 305zM291 504h436q-30 192 -213 192q-89 0 -143.5 -47t-79.5 -145zM481 1024l238 291 l145 -92l-282 -258z" />
<glyph unicode="&#xea;" horiz-adv-x="1015" d="M80 393q0 200 127 333.5t317 133.5q186 0 297 -121t105 -323l-2 -70h-645q4 -97 66 -153t163 -56q138 0 209 103l145 -82q-74 -100 -155.5 -142.5t-202.5 -42.5q-192 0 -308 115t-116 305zM291 504h436q-30 192 -213 192q-89 0 -143.5 -47t-79.5 -145zM313 1055l295 260 l207 -262l-88 -84l-139 166l-193 -170z" />
<glyph unicode="&#xeb;" horiz-adv-x="1015" d="M80 393q0 200 127 333.5t317 133.5q186 0 297 -121t105 -323l-2 -70h-645q4 -97 66 -153t163 -56q138 0 209 103l145 -82q-74 -100 -155.5 -142.5t-202.5 -42.5q-192 0 -308 115t-116 305zM291 504h436q-30 192 -213 192q-89 0 -143.5 -47t-79.5 -145zM334 1124 q0 43 30.5 74t73.5 31q44 0 76.5 -33t32.5 -76q0 -42 -32 -73t-75 -31t-74.5 32t-31.5 76zM651 1124q0 43 31 74t74 31q44 0 76 -33t32 -76t-31.5 -73.5t-74.5 -30.5t-75 32t-32 76z" />
<glyph unicode="&#xec;" horiz-adv-x="468" d="M80 0l102 834h195l-103 -834h-194zM82 1219l143 96l156 -289l-96 -61z" />
<glyph unicode="&#xed;" horiz-adv-x="468" d="M80 0l102 834h195l-103 -834h-194zM219 1024l217 291l146 -92l-265 -258z" />
<glyph unicode="&#xee;" horiz-adv-x="468" d="M53 1055l281 260l194 -262l-88 -84l-125 166l-180 -170zM78 0l102 834h197l-103 -834h-196z" />
<glyph unicode="&#xef;" horiz-adv-x="468" d="M57 1124q0 43 31 74t74 31q44 0 76 -33t32 -76t-31.5 -73.5t-74.5 -30.5t-75 32t-32 76zM80 0l102 834h195l-103 -834h-194zM338 1124q0 43 30.5 74t73.5 31q44 0 76.5 -33t32.5 -76q0 -42 -32 -73t-75 -31t-74.5 32t-31.5 76z" />
<glyph unicode="&#xf0;" horiz-adv-x="1089" d="M82 410q0 190 129.5 320t318.5 130q82 0 141 -25.5t128 -91.5q-61 280 -215 431l-205 -105l-107 102l191 103q-57 40 -94 60.5t-119 54.5l86 112q144 -38 293 -143l200 106l111 -110l-205 -103q266 -287 266 -727q0 -132 -26 -225t-84 -164q-128 -162 -346 -162 q-203 0 -333 122.5t-130 314.5zM276 414q0 -123 72.5 -200t188.5 -77q114 0 188 84t74 213q0 119 -69 190.5t-183 71.5q-117 0 -194 -79.5t-77 -202.5z" />
<glyph unicode="&#xf1;" horiz-adv-x="997" d="M80 0l102 834h195l-8 -78q63 54 115.5 76t117.5 22q63 0 119.5 -22t93.5 -62q31 -34 43 -72t12 -98q0 -49 -12 -154l-55 -446h-195l60 489q8 70 8 89q0 112 -123 112q-84 0 -141 -57q-39 -39 -57.5 -87.5t-30.5 -144.5l-50 -401h-194zM285 1094q53 85 95 120t91 35 q25 0 46.5 -8.5t78.5 -40.5q67 -37 88 -37q24 0 44 20.5t44 67.5l102 -69q-85 -160 -190 -160q-49 0 -184 80q-11 8 -29 8q-21 0 -34 -12t-38 -54q-3 -7 -14 -20z" />
<glyph unicode="&#xf2;" horiz-adv-x="1089" d="M82 410q0 193 134 321.5t335 128.5q198 0 323 -121.5t125 -314.5q0 -191 -131.5 -321t-324.5 -130q-201 0 -331 123t-130 314zM279 414q0 -123 72.5 -200t187.5 -77t189.5 84t74.5 213q0 119 -69 190.5t-183 71.5q-119 0 -195.5 -79.5t-76.5 -202.5zM377 1219l143 96 l168 -289l-94 -61z" />
<glyph unicode="&#xf3;" horiz-adv-x="1089" d="M82 410q0 193 134 321.5t335 128.5q198 0 323 -121.5t125 -314.5q0 -191 -131.5 -321t-324.5 -130q-201 0 -331 123t-130 314zM279 414q0 -123 72.5 -200t187.5 -77t189.5 84t74.5 213q0 119 -69 190.5t-183 71.5q-119 0 -195.5 -79.5t-76.5 -202.5zM512 1024l238 291 l145 -92l-283 -258z" />
<glyph unicode="&#xf4;" horiz-adv-x="1089" d="M82 410q0 193 134 321.5t335 128.5q198 0 323 -121.5t125 -314.5q0 -191 -131.5 -321t-324.5 -130q-201 0 -331 123t-130 314zM279 414q0 -123 72.5 -200t187.5 -77t189.5 84t74.5 213q0 119 -69 190.5t-183 71.5q-119 0 -195.5 -79.5t-76.5 -202.5zM371 1055l295 260 l206 -262l-88 -84l-139 166l-192 -170z" />
<glyph unicode="&#xf5;" horiz-adv-x="1089" d="M82 410q0 193 134 321.5t335 128.5q198 0 323 -121.5t125 -314.5q0 -191 -131.5 -321t-324.5 -130q-201 0 -331 123t-130 314zM279 414q0 -123 72.5 -200t187.5 -77t189.5 84t74.5 213q0 119 -69 190.5t-183 71.5q-119 0 -195.5 -79.5t-76.5 -202.5zM348 1094 q52 85 94.5 120t92.5 35q25 0 46 -8.5t78 -40.5q67 -37 89 -37q24 0 44 20.5t44 67.5l102 -69q-85 -160 -190 -160q-50 0 -185 80q-11 8 -28 8q-21 0 -34 -12t-38 -54q-3 -7 -14 -20z" />
<glyph unicode="&#xf6;" horiz-adv-x="1089" d="M82 410q0 193 134 321.5t335 128.5q198 0 323 -121.5t125 -314.5q0 -191 -131.5 -321t-324.5 -130q-201 0 -331 123t-130 314zM279 414q0 -123 72.5 -200t187.5 -77t189.5 84t74.5 213q0 119 -69 190.5t-183 71.5q-119 0 -195.5 -79.5t-76.5 -202.5zM365 1124 q0 43 30.5 74t73.5 31q44 0 76.5 -33t32.5 -76q0 -42 -32 -73t-75 -31t-74.5 32t-31.5 76zM682 1124q0 43 30.5 74t73.5 31q44 0 76.5 -33t32.5 -76q0 -42 -32 -73t-75 -31t-74.5 32t-31.5 76z" />
<glyph unicode="&#xf7;" d="M135 614v164h948v-164h-948zM489 389q0 50 33 83.5t82 33.5q51 0 88 -36t37 -87q0 -46 -37 -81.5t-84 -35.5q-49 0 -84 36t-35 87zM494 1010q0 50 32.5 83t81.5 33q51 0 88 -35.5t37 -86.5q0 -46 -37 -81.5t-84 -35.5q-49 0 -83.5 36t-34.5 87z" />
<glyph unicode="&#xf8;" horiz-adv-x="1089" d="M2 47l145 125q-35 65 -50 118.5t-15 119.5q0 193 134 321.5t337 128.5q155 0 289 -90l145 127l86 -100l-141 -117q45 -101 56 -143t11 -109q0 -194 -130.5 -324.5t-325.5 -130.5q-172 0 -310 103l-147 -127zM279 410q0 -54 18 -109l403 348q-56 47 -151 47 q-118 0 -194 -80.5t-76 -205.5zM371 195q78 -58 168 -58q118 0 191 84t73 219q0 35 -5 55t-20 50z" />
<glyph unicode="&#xf9;" horiz-adv-x="991" d="M117 272q0 51 8 111l55 451h197l-58 -467q-8 -70 -8 -91q0 -64 40.5 -98.5t115.5 -34.5q83 0 122.5 44.5t53.5 152.5l62 494h194l-59 -486q-13 -112 -36 -169.5t-69 -100.5q-103 -98 -280 -98q-154 0 -246 79.5t-92 212.5zM338 1219l143 96l168 -289l-94 -61z" />
<glyph unicode="&#xfa;" horiz-adv-x="991" d="M117 272q0 51 8 111l55 451h197l-58 -467q-8 -70 -8 -91q0 -64 40.5 -98.5t115.5 -34.5q83 0 122.5 44.5t53.5 152.5l62 494h194l-59 -486q-13 -112 -36 -169.5t-69 -100.5q-103 -98 -280 -98q-154 0 -246 79.5t-92 212.5zM473 1024l238 291l145 -92l-283 -258z" />
<glyph unicode="&#xfb;" horiz-adv-x="991" d="M117 272q0 51 8 111l55 451h197l-58 -467q-8 -70 -8 -91q0 -64 40.5 -98.5t115.5 -34.5q83 0 122.5 44.5t53.5 152.5l62 494h194l-59 -486q-13 -112 -36 -169.5t-69 -100.5q-103 -98 -280 -98q-154 0 -246 79.5t-92 212.5zM315 1055l295 260l207 -262l-88 -84l-139 166 l-193 -170z" />
<glyph unicode="&#xfc;" horiz-adv-x="991" d="M117 272q0 51 8 111l55 451h197l-58 -467q-8 -70 -8 -91q0 -64 40.5 -98.5t115.5 -34.5q83 0 122.5 44.5t53.5 152.5l62 494h194l-59 -486q-13 -112 -36 -169.5t-69 -100.5q-103 -98 -280 -98q-154 0 -246 79.5t-92 212.5zM317 1124q0 43 31 74t74 31q44 0 76 -33t32 -76 t-31.5 -73.5t-74.5 -30.5t-75 32t-32 76zM635 1124q0 43 30.5 74t73.5 31q44 0 76.5 -33t32.5 -76q0 -42 -32 -73t-75 -31t-74.5 32t-31.5 76z" />
<glyph unicode="&#xfd;" horiz-adv-x="954" d="M8 -477l336 581l-299 730h209l207 -533l301 533h223l-754 -1311h-223zM449 1024l237 291l145 -92l-282 -258z" />
<glyph unicode="&#xfe;" horiz-adv-x="1110" d="M20 -477l242 1970h197l-92 -748q71 60 130 84.5t136 24.5q167 0 277 -116.5t110 -293.5q0 -195 -127 -329.5t-311 -134.5q-92 0 -156.5 30.5t-136.5 108.5l-74 -596h-195zM322 389q0 -108 67 -177t172 -69q110 0 186 85.5t76 209.5q0 110 -63.5 181t-161.5 71 q-118 0 -197 -86t-79 -215z" />
<glyph unicode="&#xff;" horiz-adv-x="954" d="M8 -477l336 581l-299 730h209l207 -533l301 533h223l-754 -1311h-223zM293 1124q0 43 30.5 74t73.5 31q44 0 76.5 -33t32.5 -76q0 -42 -32 -73t-75 -31t-74.5 32t-31.5 76zM610 1124q0 43 31 74t74 31q44 0 76 -33t32 -76t-31.5 -73.5t-74.5 -30.5t-75 32t-32 76z" />
<glyph unicode="&#x152;" horiz-adv-x="2150" d="M117 662q0 155 55.5 291t152.5 232.5t233.5 152t293.5 55.5q173 0 303 -68t244 -217l33 258h725l-23 -188h-524l-43 -359h532l-22 -174h-533l-55 -457h532l-22 -188h-735l22 184q-114 -114 -225 -162.5t-260 -48.5q-194 0 -350.5 89t-245 246.5t-88.5 353.5zM319 657 q0 -215 141 -354t361 -139q148 0 269 69.5t189.5 191.5t68.5 271q0 227 -140.5 366.5t-369.5 139.5q-144 0 -263.5 -71.5t-187.5 -196.5t-68 -277z" />
<glyph unicode="&#x153;" horiz-adv-x="1773" d="M82 416q0 193 134 318.5t341 125.5q119 0 205 -38.5t162 -127.5q72 86 156 126t194 40q193 0 305.5 -117.5t106.5 -318.5l-3 -72h-663q9 -88 47 -137q26 -34 80.5 -56t112.5 -22q148 0 217 119l147 -92q-74 -100 -159.5 -145.5t-202.5 -45.5q-223 0 -355 166 q-76 -92 -156 -129t-200 -37q-205 0 -337 124.5t-132 318.5zM279 408q0 -117 75.5 -194t192.5 -77q120 0 198 80.5t78 204.5t-73 199t-195 75q-120 0 -198 -81.5t-78 -206.5zM1024 496h459q-12 200 -211 200q-201 0 -248 -200z" />
<glyph unicode="&#x178;" horiz-adv-x="1056" d="M92 1366h217l252 -543l359 543h233l-506 -754l-76 -612h-202l77 625zM385 1642q0 49 32 80t83 31q47 0 77.5 -33t30.5 -84q0 -44 -32 -75t-76 -31q-47 0 -81 33t-34 79zM717 1645q0 46 33 78t79 32q47 0 80 -34t33 -81q0 -45 -33.5 -77.5t-79.5 -32.5q-45 0 -78.5 34.5 t-33.5 80.5z" />
<glyph unicode="&#x2c6;" horiz-adv-x="1024" d="M332 1055l295 260l207 -262l-89 -84l-139 166l-192 -170z" />
<glyph unicode="&#x2dc;" horiz-adv-x="1024" d="M301 1094q53 85 95 120t91 35q25 0 46.5 -8.5t78.5 -40.5q67 -37 88 -37q24 0 44 20.5t44 67.5l103 -69q-85 -160 -191 -160q-49 0 -184 80q-11 8 -29 8q-21 0 -33 -11.5t-38 -54.5q-2 -3 -15 -20z" />
<glyph unicode="&#x2000;" horiz-adv-x="940" />
<glyph unicode="&#x2001;" horiz-adv-x="1880" />
<glyph unicode="&#x2002;" horiz-adv-x="940" />
<glyph unicode="&#x2003;" horiz-adv-x="1880" />
<glyph unicode="&#x2004;" horiz-adv-x="626" />
<glyph unicode="&#x2005;" horiz-adv-x="470" />
<glyph unicode="&#x2006;" horiz-adv-x="313" />
<glyph unicode="&#x2007;" horiz-adv-x="313" />
<glyph unicode="&#x2008;" horiz-adv-x="235" />
<glyph unicode="&#x2009;" horiz-adv-x="376" />
<glyph unicode="&#x200a;" horiz-adv-x="104" />
<glyph unicode="&#x2010;" horiz-adv-x="382" d="M-14 352l18 156h383l-18 -156h-383z" />
<glyph unicode="&#x2011;" horiz-adv-x="382" d="M-14 352l18 156h383l-18 -156h-383z" />
<glyph unicode="&#x2012;" horiz-adv-x="382" d="M-14 352l18 156h383l-18 -156h-383z" />
<glyph unicode="&#x2013;" d="M100 352l19 156h932l-21 -156h-930z" />
<glyph unicode="&#x2014;" horiz-adv-x="1148" d="M-14 352l18 156h1149l-18 -156h-1149z" />
<glyph unicode="&#x2018;" horiz-adv-x="557" d="M166 924l280 469l109 -60l-252 -483z" />
<glyph unicode="&#x2019;" horiz-adv-x="557" d="M164 907l252 486l137 -76l-281 -467z" />
<glyph unicode="&#x201a;" horiz-adv-x="557" d="M-4 -240l252 486l137 -76l-281 -469z" />
<glyph unicode="&#x201c;" horiz-adv-x="894" d="M166 924l280 469l109 -60l-252 -483zM504 924l280 469l109 -60l-252 -483z" />
<glyph unicode="&#x201d;" horiz-adv-x="894" d="M164 907l252 486l137 -76l-281 -467zM502 907l252 486l137 -76l-281 -467z" />
<glyph unicode="&#x201e;" horiz-adv-x="894" d="M-4 -240l252 486l137 -76l-281 -469zM334 -240l252 486l137 -76l-281 -469z" />
<glyph unicode="&#x2022;" horiz-adv-x="1366" d="M426 692q0 120 83.5 202.5t205.5 82.5q114 0 196 -83.5t82 -199.5q0 -118 -82.5 -201t-199.5 -83t-201 83t-84 199z" />
<glyph unicode="&#x2026;" horiz-adv-x="1513" d="M86 102q0 50 33 83.5t82 33.5q51 0 88 -36t37 -87q0 -46 -37 -81t-84 -35q-50 0 -84.5 35.5t-34.5 86.5zM596 102q0 50 33 83.5t82 33.5q51 0 88 -36t37 -87q0 -46 -37 -81t-84 -35q-50 0 -84.5 35.5t-34.5 86.5zM1104 102q0 50 33 83.5t82 33.5q51 0 87.5 -36t36.5 -87 q0 -46 -36.5 -81t-83.5 -35q-50 0 -84.5 35.5t-34.5 86.5z" />
<glyph unicode="&#x202f;" horiz-adv-x="376" />
<glyph unicode="&#x2039;" horiz-adv-x="526" d="M63 430l322 395l94 -80l-266 -319l186 -307l-102 -64z" />
<glyph unicode="&#x203a;" horiz-adv-x="526" d="M39 115l264 321l-184 307l102 64l234 -377l-322 -395z" />
<glyph unicode="&#x205f;" horiz-adv-x="470" />
<glyph unicode="&#x20ac;" horiz-adv-x="1597" d="M127 494l72 145h114q-2 14 -2 39q0 38 2 65h-168l72 146h123q68 232 256.5 368t441.5 136q283 0 480 -164l-95 -185q-139 158 -376 158q-169 0 -298 -82.5t-192 -230.5h791l-72 -146h-758q-4 -54 -4 -67q0 -23 2 -37h709l-72 -145h-608q58 -160 179 -245t288 -85 q217 0 360 143l-20 -256q-153 -78 -346 -78q-258 0 -436 137.5t-238 383.5h-205z" />
<glyph unicode="&#x2122;" horiz-adv-x="1556" d="M88 1235l16 131h533l-16 -131h-189l-80 -647h-147l80 647h-197zM563 588l293 860l219 -625l373 643l82 -878h-144l-38 448l-306 -520l-178 520l-149 -448h-152z" />
</font>
</defs>
</svg>
